<svg xmlns="http://www.w3.org/2000/svg" version="1.1" xmlns:xlink="http://www.w3.org/1999/xlink" xmlns:svgjs="http://svgjs.dev/svgjs" width="2000" height="1999" viewBox="0 0 2000 1999"><g transform="matrix(1,0,0,1,-0.431486880466764,-0.4312711370263287)"><svg viewBox="0 0 343 343" data-background-color="#ffffff" preserveAspectRatio="xMidYMid meet" height="1999" width="2000" xmlns="http://www.w3.org/2000/svg" xmlns:xlink="http://www.w3.org/1999/xlink"><g id="tight-bounds" transform="matrix(1,0,0,1,0.0740000000000407,0.07400000000001228)"><svg viewBox="0 0 342.85155851775386 342.85155851775386" height="342.85155851775386" width="342.85155851775386"><g><svg></svg></g><g><svg viewBox="0 0 342.85155851775386 342.85155851775386" height="342.85155851775386" width="342.85155851775386"><g><path d="M0 171.426c0-94.676 76.75-171.426 171.426-171.426 94.676 0 171.426 76.75 171.426 171.426 0 94.676-76.75 171.426-171.426 171.426-94.676 0-171.426-76.75-171.426-171.426zM171.426 332.717c89.079 0 161.291-72.213 161.291-161.291 0-89.079-72.213-161.291-161.291-161.292-89.079 0-161.291 72.213-161.292 161.292 0 89.079 72.213 161.291 161.292 161.291z" data-fill-palette-color="tertiary" fill="#ffa96a" stroke="transparent"></path><ellipse rx="164.56874808852186" ry="164.56874808852186" cx="171.42577925887693" cy="171.42577925887693" fill="#ffa96a" stroke="transparent" stroke-width="0" fill-opacity="1" data-fill-palette-color="tertiary"></ellipse></g><g transform="matrix(1,0,0,1,64.84655864529837,115.2363102993507)"><svg viewBox="0 0 213.1584412271571 112.37893791905245" height="112.37893791905245" width="213.1584412271571"><g><svg viewBox="0 0 213.1584412271571 112.37893791905245" height="112.37893791905245" width="213.1584412271571"><g><svg viewBox="0 0 213.1584412271571 112.37893791905245" height="112.37893791905245" width="213.1584412271571"><g><svg viewBox="0 0 213.1584412271571 112.37893791905245" height="112.37893791905245" width="213.1584412271571"><g id="textblocktransform"><svg viewBox="0 0 213.1584412271571 112.37893791905245" height="112.37893791905245" width="213.1584412271571" id="textblock"><g><svg viewBox="0 0 213.1584412271571 112.37893791905245" height="112.37893791905245" width="213.1584412271571"><g transform="matrix(1,0,0,1,0,0)"><svg width="213.1584412271571" viewBox="3 -37.1 70.75 37.300000000000004" height="112.37893791905245" data-palette-color="#ffffff"><path d="M51.2-3.15L51.2-3.15Q51.1-2 50.23-1.1 49.35-0.2 47.85-0.1L47.85-0.1Q43.75 0.15 41.1 0.15 38.45 0.15 34.85-0.1L34.85-0.1Q32.1-0.35 31.95-2.5L31.95-2.5Q31.9-3.35 31.85-4.73 31.8-6.1 31.73-7.15 31.65-8.2 31.18-8.8 30.7-9.4 29.5-9.4L29.5-9.4 25.75-9.4Q24.55-9.4 24.08-8.8 23.6-8.2 23.53-7.15 23.45-6.1 23.4-4.73 23.35-3.35 23.3-2.5L23.3-2.5Q23.15-0.35 20.4-0.1L20.4-0.1Q16.8 0.15 13.83 0.15 10.85 0.15 6.75-0.1L6.75-0.1Q5.25-0.2 4.38-1.1 3.5-2 3.4-3.15L3.4-3.15Q3-7.55 3-17.3 3-27.05 3.2-29.98 3.4-32.9 4.1-33.98 4.8-35.05 6.9-35.05L6.9-35.05 19.1-35.05Q20.85-35.05 22.08-33.85 23.3-32.65 23.3-30.75L23.3-30.75 23.3-20.25Q23.3-18.45 24.85-18.45L24.85-18.45 30.4-18.45Q31.95-18.45 31.95-20.25L31.95-20.25 31.95-30.75Q31.95-32.65 33.18-33.85 34.4-35.05 36.15-35.05L36.15-35.05 47.7-35.05Q49.8-35.05 50.5-33.98 51.2-32.9 51.4-29.98 51.6-27.05 51.6-17.3 51.6-7.55 51.2-3.15ZM60.8-25.3L60.8-25.3 70.55-25.3Q72.25-25.3 72.82-24.55 73.4-23.8 73.57-21.23 73.75-18.65 73.75-11.83 73.75-5 73.45-2.2L73.45-2.2Q73.3-1.35 72.6-0.7 71.9-0.05 70.12 0.08 68.35 0.2 65.9 0.2 63.45 0.2 61.45 0.08 59.45-0.05 58.75-0.7 58.05-1.35 57.95-2.2L57.95-2.2Q57.6-5.45 57.6-12.18 57.6-18.9 57.8-21.35 58-23.8 58.55-24.55 59.1-25.3 60.8-25.3ZM66.2-37.1L66.2-37.1Q69.5-37.1 71.17-35.77 72.85-34.45 72.85-32.15L72.85-32.15Q72.85-26.75 65.65-26.75L65.65-26.75Q62.75-26.75 60.7-28 58.65-29.25 58.65-31.75L58.65-31.75Q58.65-37.1 66.2-37.1Z" opacity="1" transform="matrix(1,0,0,1,0,0)" fill="#ffffff" class="wordmark-text-0" data-fill-palette-color="quaternary" id="text-0"></path></svg></g></svg></g></svg></g></svg></g><g></g></svg></g></svg></g></svg></g></svg></g><defs></defs></svg><rect width="342.85155851775386" height="342.85155851775386" fill="none" stroke="none" visibility="hidden"></rect></g></svg></g></svg>